<mxfile host="Electron" modified="2024-03-03T16:20:51.969Z" agent="Mozilla/5.0 (Windows NT 10.0; Win64; x64) AppleWebKit/537.36 (KHTML, like Gecko) draw.io/23.1.5 Chrome/120.0.6099.109 Electron/28.1.0 Safari/537.36" etag="Pvsmtov7qSI5By_k6SBM" version="23.1.5" type="device">
  <diagram name="Page-1" id="2YBvvXClWsGukQMizWep">
    <mxGraphModel dx="712" dy="875" grid="1" gridSize="10" guides="1" tooltips="1" connect="1" arrows="1" fold="1" page="1" pageScale="1" pageWidth="850" pageHeight="1100" math="0" shadow="0">
      <root>
        <mxCell id="0" />
        <mxCell id="1" parent="0" />
        <mxCell id="RvZzmOZLVqUPOCZEMB7k-1" value="sd Create 2 Rectangles Difference" style="shape=umlFrame;whiteSpace=wrap;html=1;pointerEvents=0;recursiveResize=0;container=1;collapsible=0;width=160;" parent="1" vertex="1">
          <mxGeometry x="80" y="120" width="800" height="490" as="geometry" />
        </mxCell>
        <mxCell id="RvZzmOZLVqUPOCZEMB7k-22" value="sd Difference 2 Rectangles Then Resize" style="shape=umlFrame;whiteSpace=wrap;html=1;pointerEvents=0;recursiveResize=0;container=1;collapsible=0;width=160;" parent="1" vertex="1">
          <mxGeometry x="40" y="40" width="880" height="1140" as="geometry" />
        </mxCell>
        <mxCell id="aM9ryv3xv72pqoxQDRHE-1" value=":User" style="shape=umlLifeline;perimeter=lifelinePerimeter;whiteSpace=wrap;html=1;container=0;dropTarget=0;collapsible=0;recursiveResize=0;outlineConnect=0;portConstraint=eastwest;newEdgeStyle={&quot;edgeStyle&quot;:&quot;elbowEdgeStyle&quot;,&quot;elbow&quot;:&quot;vertical&quot;,&quot;curved&quot;:0,&quot;rounded&quot;:0};" parent="RvZzmOZLVqUPOCZEMB7k-22" vertex="1">
          <mxGeometry x="220" y="20" width="120" height="1100" as="geometry" />
        </mxCell>
        <mxCell id="aM9ryv3xv72pqoxQDRHE-5" value=":DrawingApp" style="shape=umlLifeline;perimeter=lifelinePerimeter;whiteSpace=wrap;html=1;container=0;dropTarget=0;collapsible=0;recursiveResize=0;outlineConnect=0;portConstraint=eastwest;newEdgeStyle={&quot;edgeStyle&quot;:&quot;elbowEdgeStyle&quot;,&quot;elbow&quot;:&quot;vertical&quot;,&quot;curved&quot;:0,&quot;rounded&quot;:0};" parent="RvZzmOZLVqUPOCZEMB7k-22" vertex="1">
          <mxGeometry x="460" y="20" width="120" height="1100" as="geometry" />
        </mxCell>
        <mxCell id="RvZzmOZLVqUPOCZEMB7k-34" value="" style="html=1;points=[[0,0,0,0,5],[0,1,0,0,-5],[1,0,0,0,5],[1,1,0,0,-5]];perimeter=orthogonalPerimeter;outlineConnect=0;targetShapes=umlLifeline;portConstraint=eastwest;newEdgeStyle={&quot;curved&quot;:0,&quot;rounded&quot;:0};" parent="aM9ryv3xv72pqoxQDRHE-5" vertex="1">
          <mxGeometry x="55.170000000000016" y="260" width="10" height="40" as="geometry" />
        </mxCell>
        <mxCell id="RvZzmOZLVqUPOCZEMB7k-35" value="shape1 = findShape(x1, y1)" style="html=1;align=left;spacingLeft=2;endArrow=block;rounded=0;edgeStyle=orthogonalEdgeStyle;curved=0;rounded=0;" parent="aM9ryv3xv72pqoxQDRHE-5" target="RvZzmOZLVqUPOCZEMB7k-34" edge="1">
          <mxGeometry relative="1" as="geometry">
            <mxPoint x="60.170000000000016" y="240" as="sourcePoint" />
            <Array as="points">
              <mxPoint x="90.16999999999996" y="270" />
            </Array>
          </mxGeometry>
        </mxCell>
        <mxCell id="RvZzmOZLVqUPOCZEMB7k-40" value="" style="html=1;points=[[0,0,0,0,5],[0,1,0,0,-5],[1,0,0,0,5],[1,1,0,0,-5]];perimeter=orthogonalPerimeter;outlineConnect=0;targetShapes=umlLifeline;portConstraint=eastwest;newEdgeStyle={&quot;curved&quot;:0,&quot;rounded&quot;:0};" parent="aM9ryv3xv72pqoxQDRHE-5" vertex="1">
          <mxGeometry x="55.17000000000013" y="420" width="10" height="40" as="geometry" />
        </mxCell>
        <mxCell id="RvZzmOZLVqUPOCZEMB7k-41" value="shape2 = findShape(x2, y2)" style="html=1;align=left;spacingLeft=2;endArrow=block;rounded=0;edgeStyle=orthogonalEdgeStyle;curved=0;rounded=0;" parent="aM9ryv3xv72pqoxQDRHE-5" target="RvZzmOZLVqUPOCZEMB7k-40" edge="1">
          <mxGeometry relative="1" as="geometry">
            <mxPoint x="60.17000000000013" y="400" as="sourcePoint" />
            <Array as="points">
              <mxPoint x="90.16999999999996" y="430" />
            </Array>
          </mxGeometry>
        </mxCell>
        <mxCell id="RvZzmOZLVqUPOCZEMB7k-5" value="selectDifference()" style="html=1;verticalAlign=bottom;labelBackgroundColor=none;endArrow=open;endFill=0;rounded=0;" parent="RvZzmOZLVqUPOCZEMB7k-22" source="aM9ryv3xv72pqoxQDRHE-1" target="aM9ryv3xv72pqoxQDRHE-5" edge="1">
          <mxGeometry width="160" relative="1" as="geometry">
            <mxPoint x="280" y="160" as="sourcePoint" />
            <mxPoint x="520" y="160" as="targetPoint" />
            <Array as="points">
              <mxPoint x="400.5" y="160" />
            </Array>
            <mxPoint as="offset" />
          </mxGeometry>
        </mxCell>
        <mxCell id="RvZzmOZLVqUPOCZEMB7k-7" value="[x1, y1] = click()" style="html=1;verticalAlign=bottom;labelBackgroundColor=none;endArrow=open;endFill=0;rounded=0;" parent="RvZzmOZLVqUPOCZEMB7k-22" source="aM9ryv3xv72pqoxQDRHE-1" target="aM9ryv3xv72pqoxQDRHE-5" edge="1">
          <mxGeometry x="0.0007" width="160" relative="1" as="geometry">
            <mxPoint x="280" y="240" as="sourcePoint" />
            <mxPoint x="520" y="240" as="targetPoint" />
            <Array as="points">
              <mxPoint x="400.5" y="240" />
            </Array>
            <mxPoint as="offset" />
          </mxGeometry>
        </mxCell>
        <mxCell id="RvZzmOZLVqUPOCZEMB7k-10" value="[x2, y2]&amp;nbsp;&amp;nbsp;= click()" style="html=1;verticalAlign=bottom;labelBackgroundColor=none;endArrow=open;endFill=0;rounded=0;" parent="RvZzmOZLVqUPOCZEMB7k-22" source="aM9ryv3xv72pqoxQDRHE-1" target="aM9ryv3xv72pqoxQDRHE-5" edge="1">
          <mxGeometry width="160" relative="1" as="geometry">
            <mxPoint x="269.66666666666674" y="400.0000000000002" as="sourcePoint" />
            <mxPoint x="509.5000000000002" y="400.0000000000002" as="targetPoint" />
            <Array as="points">
              <mxPoint x="400" y="400" />
            </Array>
            <mxPoint as="offset" />
          </mxGeometry>
        </mxCell>
        <mxCell id="5ZPEw8xnqNuzQEx_Yz8Z-1" value="Ready" style="html=1;align=center;verticalAlign=top;rounded=1;absoluteArcSize=1;arcSize=10;dashed=0;whiteSpace=wrap;direction=west;movable=1;resizable=1;rotatable=1;deletable=1;editable=1;locked=0;connectable=1;" parent="RvZzmOZLVqUPOCZEMB7k-22" vertex="1">
          <mxGeometry x="470" y="100" width="100" height="40" as="geometry" />
        </mxCell>
        <mxCell id="RvZzmOZLVqUPOCZEMB7k-6" value="Difference" style="html=1;align=center;verticalAlign=top;rounded=1;absoluteArcSize=1;arcSize=10;dashed=0;whiteSpace=wrap;direction=west;movable=1;resizable=1;rotatable=1;deletable=1;editable=1;locked=0;connectable=1;" parent="RvZzmOZLVqUPOCZEMB7k-22" vertex="1">
          <mxGeometry x="470" y="180" width="100" height="40" as="geometry" />
        </mxCell>
        <mxCell id="RvZzmOZLVqUPOCZEMB7k-9" value="Select Second" style="html=1;align=center;verticalAlign=top;rounded=1;absoluteArcSize=1;arcSize=10;dashed=0;whiteSpace=wrap;direction=west;movable=1;resizable=1;rotatable=1;deletable=1;editable=1;locked=0;connectable=1;" parent="RvZzmOZLVqUPOCZEMB7k-22" vertex="1">
          <mxGeometry x="460" y="340" width="100" height="40" as="geometry" />
        </mxCell>
        <mxCell id="RvZzmOZLVqUPOCZEMB7k-24" value=":Difference" style="shape=umlLifeline;perimeter=lifelinePerimeter;whiteSpace=wrap;html=1;container=0;dropTarget=0;collapsible=0;recursiveResize=0;outlineConnect=0;portConstraint=eastwest;newEdgeStyle={&quot;edgeStyle&quot;:&quot;elbowEdgeStyle&quot;,&quot;elbow&quot;:&quot;vertical&quot;,&quot;curved&quot;:0,&quot;rounded&quot;:0};" parent="RvZzmOZLVqUPOCZEMB7k-22" vertex="1">
          <mxGeometry x="700" y="450" width="120" height="670" as="geometry" />
        </mxCell>
        <mxCell id="RvZzmOZLVqUPOCZEMB7k-25" value="create(shape1, shape2)" style="endArrow=open;startArrow=none;endFill=0;startFill=0;endSize=8;html=1;verticalAlign=bottom;dashed=1;labelBackgroundColor=none;rounded=0;" parent="RvZzmOZLVqUPOCZEMB7k-22" source="RvZzmOZLVqUPOCZEMB7k-40" edge="1">
          <mxGeometry width="160" relative="1" as="geometry">
            <mxPoint x="515.1700000000003" y="470" as="sourcePoint" />
            <mxPoint x="700" y="470" as="targetPoint" />
          </mxGeometry>
        </mxCell>
        <mxCell id="RvZzmOZLVqUPOCZEMB7k-20" value="sd Resize Difference" style="shape=umlFrame;whiteSpace=wrap;html=1;pointerEvents=0;recursiveResize=0;container=1;collapsible=0;width=160;" parent="RvZzmOZLVqUPOCZEMB7k-22" vertex="1">
          <mxGeometry x="40" y="590" width="800" height="530" as="geometry" />
        </mxCell>
        <mxCell id="RvZzmOZLVqUPOCZEMB7k-51" value="Shape Selected" style="html=1;align=center;verticalAlign=top;rounded=1;absoluteArcSize=1;arcSize=10;dashed=0;whiteSpace=wrap;direction=west;movable=1;resizable=1;rotatable=1;deletable=1;editable=1;locked=0;connectable=1;" parent="RvZzmOZLVqUPOCZEMB7k-20" vertex="1">
          <mxGeometry x="430.17" y="150" width="100" height="40" as="geometry" />
        </mxCell>
        <mxCell id="RvZzmOZLVqUPOCZEMB7k-54" value="resizeType = findResizeType(x2, y2)" style="html=1;align=left;spacingLeft=2;endArrow=block;rounded=0;edgeStyle=orthogonalEdgeStyle;curved=0;rounded=0;" parent="RvZzmOZLVqUPOCZEMB7k-20" target="RvZzmOZLVqUPOCZEMB7k-55" edge="1">
          <mxGeometry relative="1" as="geometry">
            <mxPoint x="480.1700000000001" y="230" as="sourcePoint" />
            <Array as="points">
              <mxPoint x="510.16999999999996" y="260" />
            </Array>
          </mxGeometry>
        </mxCell>
        <mxCell id="RvZzmOZLVqUPOCZEMB7k-55" value="" style="html=1;points=[[0,0,0,0,5],[0,1,0,0,-5],[1,0,0,0,5],[1,1,0,0,-5]];perimeter=orthogonalPerimeter;outlineConnect=0;targetShapes=umlLifeline;portConstraint=eastwest;newEdgeStyle={&quot;curved&quot;:0,&quot;rounded&quot;:0};" parent="RvZzmOZLVqUPOCZEMB7k-20" vertex="1">
          <mxGeometry x="475.1700000000001" y="250" width="10" height="40" as="geometry" />
        </mxCell>
        <mxCell id="RvZzmOZLVqUPOCZEMB7k-58" value="Resize Type Selected" style="html=1;align=center;verticalAlign=top;rounded=1;absoluteArcSize=1;arcSize=10;dashed=0;whiteSpace=wrap;direction=west;movable=1;resizable=1;rotatable=1;deletable=1;editable=1;locked=0;connectable=1;" parent="RvZzmOZLVqUPOCZEMB7k-20" vertex="1">
          <mxGeometry x="430.17" y="310" width="100" height="40" as="geometry" />
        </mxCell>
        <mxCell id="RvZzmOZLVqUPOCZEMB7k-59" value="Ready" style="html=1;align=center;verticalAlign=top;rounded=1;absoluteArcSize=1;arcSize=10;dashed=0;whiteSpace=wrap;direction=west;movable=1;resizable=1;rotatable=1;deletable=1;editable=1;locked=0;connectable=1;" parent="RvZzmOZLVqUPOCZEMB7k-20" vertex="1">
          <mxGeometry x="430.17" y="470" width="100" height="40" as="geometry" />
        </mxCell>
        <mxCell id="RvZzmOZLVqUPOCZEMB7k-43" value="[x1, y1] = click()" style="html=1;verticalAlign=bottom;labelBackgroundColor=none;endArrow=open;endFill=0;rounded=0;" parent="RvZzmOZLVqUPOCZEMB7k-20" edge="1">
          <mxGeometry width="160" relative="1" as="geometry">
            <mxPoint x="239.99925925925936" y="30" as="sourcePoint" />
            <mxPoint x="479.7399999999998" y="30" as="targetPoint" />
            <Array as="points">
              <mxPoint x="361.58000000000004" y="30" />
            </Array>
            <mxPoint as="offset" />
          </mxGeometry>
        </mxCell>
        <mxCell id="RvZzmOZLVqUPOCZEMB7k-45" value="shape1 = findShape(x1, y1)" style="html=1;align=left;spacingLeft=2;endArrow=block;rounded=0;edgeStyle=orthogonalEdgeStyle;curved=0;rounded=0;" parent="RvZzmOZLVqUPOCZEMB7k-20" target="RvZzmOZLVqUPOCZEMB7k-44" edge="1">
          <mxGeometry relative="1" as="geometry">
            <mxPoint x="480.1700000000001" y="50" as="sourcePoint" />
            <Array as="points">
              <mxPoint x="510.16999999999996" y="80" />
            </Array>
          </mxGeometry>
        </mxCell>
        <mxCell id="RvZzmOZLVqUPOCZEMB7k-44" value="" style="html=1;points=[[0,0,0,0,5],[0,1,0,0,-5],[1,0,0,0,5],[1,1,0,0,-5]];perimeter=orthogonalPerimeter;outlineConnect=0;targetShapes=umlLifeline;portConstraint=eastwest;newEdgeStyle={&quot;curved&quot;:0,&quot;rounded&quot;:0};" parent="RvZzmOZLVqUPOCZEMB7k-20" vertex="1">
          <mxGeometry x="475.1700000000001" y="70" width="10" height="40" as="geometry" />
        </mxCell>
        <mxCell id="RvZzmOZLVqUPOCZEMB7k-63" value="Selected" style="html=1;align=center;verticalAlign=top;rounded=1;absoluteArcSize=1;arcSize=10;dashed=0;whiteSpace=wrap;direction=west;movable=1;resizable=1;rotatable=1;deletable=1;editable=1;locked=0;connectable=1;" parent="RvZzmOZLVqUPOCZEMB7k-20" vertex="1">
          <mxGeometry x="670" y="150" width="100" height="40" as="geometry" />
        </mxCell>
        <mxCell id="RvZzmOZLVqUPOCZEMB7k-64" value="Unused" style="html=1;align=center;verticalAlign=top;rounded=1;absoluteArcSize=1;arcSize=10;dashed=0;whiteSpace=wrap;direction=west;movable=1;resizable=1;rotatable=1;deletable=1;editable=1;locked=0;connectable=1;" parent="RvZzmOZLVqUPOCZEMB7k-20" vertex="1">
          <mxGeometry x="670" y="470" width="100" height="40" as="geometry" />
        </mxCell>
        <mxCell id="xPb3FiOIvuONXd7DkFFr-2" value="&lt;div&gt;&lt;br/&gt;&lt;/div&gt;" style="endArrow=none;startArrow=none;endFill=0;startFill=0;endSize=8;html=1;verticalAlign=bottom;dashed=1;labelBackgroundColor=none;dashPattern=10 10;rounded=0;entryX=0;entryY=0;entryDx=140;entryDy=67.5;entryPerimeter=0;exitX=0;exitY=1;exitDx=0;exitDy=-5;exitPerimeter=0;" parent="RvZzmOZLVqUPOCZEMB7k-20" source="RvZzmOZLVqUPOCZEMB7k-55" target="xPb3FiOIvuONXd7DkFFr-1" edge="1">
          <mxGeometry width="160" relative="1" as="geometry">
            <mxPoint x="460" y="220" as="sourcePoint" />
            <mxPoint x="760" y="290" as="targetPoint" />
          </mxGeometry>
        </mxCell>
        <mxCell id="xPb3FiOIvuONXd7DkFFr-1" value="Depending on where you click on the shape, it will be resized in either direction." style="shape=note2;boundedLbl=1;whiteSpace=wrap;html=1;size=25;verticalAlign=top;align=center;" parent="RvZzmOZLVqUPOCZEMB7k-20" vertex="1">
          <mxGeometry x="270" y="230" width="140" height="110" as="geometry" />
        </mxCell>
        <mxCell id="uD5H4YkZczwe-1z529lf-3" value="Resize Shape" style="html=1;align=center;verticalAlign=top;rounded=1;absoluteArcSize=1;arcSize=10;dashed=0;whiteSpace=wrap;direction=west;movable=1;resizable=1;rotatable=1;deletable=1;editable=1;locked=0;connectable=1;" vertex="1" parent="RvZzmOZLVqUPOCZEMB7k-20">
          <mxGeometry x="430.1700000000001" y="390" width="100" height="40" as="geometry" />
        </mxCell>
        <mxCell id="RvZzmOZLVqUPOCZEMB7k-56" value="resize(resizeType, x3, y3)" style="html=1;verticalAlign=bottom;labelBackgroundColor=none;endArrow=open;endFill=0;rounded=0;" parent="RvZzmOZLVqUPOCZEMB7k-22" source="aM9ryv3xv72pqoxQDRHE-5" target="RvZzmOZLVqUPOCZEMB7k-24" edge="1">
          <mxGeometry width="160" relative="1" as="geometry">
            <mxPoint x="509.75925925925935" y="990" as="sourcePoint" />
            <mxPoint x="749.4999999999998" y="990" as="targetPoint" />
            <Array as="points">
              <mxPoint x="610" y="1040" />
            </Array>
            <mxPoint as="offset" />
          </mxGeometry>
        </mxCell>
        <mxCell id="RvZzmOZLVqUPOCZEMB7k-60" value="Ready" style="html=1;align=center;verticalAlign=top;rounded=1;absoluteArcSize=1;arcSize=10;dashed=0;whiteSpace=wrap;direction=west;movable=1;resizable=1;rotatable=1;deletable=1;editable=1;locked=0;connectable=1;" parent="RvZzmOZLVqUPOCZEMB7k-22" vertex="1">
          <mxGeometry x="470" y="500" width="100" height="40" as="geometry" />
        </mxCell>
        <mxCell id="RvZzmOZLVqUPOCZEMB7k-62" value="Unused" style="html=1;align=center;verticalAlign=top;rounded=1;absoluteArcSize=1;arcSize=10;dashed=0;whiteSpace=wrap;direction=west;movable=1;resizable=1;rotatable=1;deletable=1;editable=1;locked=0;connectable=1;" parent="RvZzmOZLVqUPOCZEMB7k-22" vertex="1">
          <mxGeometry x="710" y="510" width="100" height="40" as="geometry" />
        </mxCell>
        <mxCell id="RvZzmOZLVqUPOCZEMB7k-50" value="select()" style="html=1;verticalAlign=bottom;labelBackgroundColor=none;endArrow=open;endFill=0;rounded=0;" parent="RvZzmOZLVqUPOCZEMB7k-22" source="aM9ryv3xv72pqoxQDRHE-5" target="RvZzmOZLVqUPOCZEMB7k-24" edge="1">
          <mxGeometry width="160" relative="1" as="geometry">
            <mxPoint x="525.1692592592594" y="720" as="sourcePoint" />
            <mxPoint x="764.9099999999997" y="720" as="targetPoint" />
            <Array as="points">
              <mxPoint x="640" y="720" />
            </Array>
            <mxPoint as="offset" />
          </mxGeometry>
        </mxCell>
        <mxCell id="RvZzmOZLVqUPOCZEMB7k-53" value="[x2, y2] = click()" style="html=1;verticalAlign=bottom;labelBackgroundColor=none;endArrow=open;endFill=0;rounded=0;" parent="RvZzmOZLVqUPOCZEMB7k-22" source="aM9ryv3xv72pqoxQDRHE-1" target="aM9ryv3xv72pqoxQDRHE-5" edge="1">
          <mxGeometry width="160" relative="1" as="geometry">
            <mxPoint x="285.42925925925937" y="800" as="sourcePoint" />
            <mxPoint x="525.1699999999997" y="800" as="targetPoint" />
            <Array as="points">
              <mxPoint x="417.01000000000005" y="800" />
            </Array>
            <mxPoint as="offset" />
          </mxGeometry>
        </mxCell>
        <mxCell id="RvZzmOZLVqUPOCZEMB7k-57" value="[x3, y3] = drag()" style="html=1;verticalAlign=bottom;labelBackgroundColor=none;endArrow=open;endFill=0;rounded=0;" parent="RvZzmOZLVqUPOCZEMB7k-22" source="aM9ryv3xv72pqoxQDRHE-1" target="aM9ryv3xv72pqoxQDRHE-5" edge="1">
          <mxGeometry width="160" relative="1" as="geometry">
            <mxPoint x="285.42925925925937" y="970" as="sourcePoint" />
            <mxPoint x="525.1699999999997" y="970" as="targetPoint" />
            <Array as="points">
              <mxPoint x="406" y="960" />
            </Array>
            <mxPoint as="offset" />
          </mxGeometry>
        </mxCell>
      </root>
    </mxGraphModel>
  </diagram>
</mxfile>
